<?xml version="1.0" standalone="no"?>
<!DOCTYPE svg PUBLIC "-//W3C//DTD SVG 20010904//EN"
 "http://www.w3.org/TR/2001/REC-SVG-20010904/DTD/svg10.dtd">
<svg version="1.0" xmlns="http://www.w3.org/2000/svg"
 width="606.000000pt" height="517.000000pt" viewBox="0 0 606.000000 517.000000"
 preserveAspectRatio="xMidYMid meet">

<g transform="translate(0.000000,517.000000) scale(0.100000,-0.100000)"
fill="#000000" stroke="none">
<path d="M2770 4750 c-523 -51 -973 -263 -1338 -629 -656 -656 -817 -1651
-401 -2484 170 -341 432 -637 740 -837 269 -174 565 -286 890 -335 123 -19
458 -22 564 -5 148 23 284 53 389 87 557 179 1026 584 1281 1106 105 216 174
446 206 687 18 135 15 410 -5 555 -136 958 -877 1702 -1831 1841 -125 18 -383
25 -495 14z m487 -76 c668 -90 1283 -533 1576 -1137 150 -307 218 -598 218
-927 0 -249 -30 -445 -106 -675 -64 -198 -268 -576 -299 -558 -7 5 -133 97
-279 206 -169 126 -264 203 -260 210 4 7 21 35 39 62 55 86 114 213 149 318
91 272 84 619 -16 904 -165 468 -599 829 -1089 908 -108 17 -331 19 -435 5
-306 -44 -567 -179 -800 -414 -189 -190 -310 -412 -367 -671 -29 -135 -36
-401 -13 -536 30 -184 99 -363 198 -514 25 -38 43 -73 39 -76 -13 -12 -527
-395 -539 -402 -15 -10 -110 135 -184 281 -269 531 -299 1155 -83 1702 120
301 271 529 500 750 465 449 1095 653 1751 564z m-65 -754 c281 -48 503 -165
713 -375 228 -227 345 -470 386 -799 14 -118 7 -299 -16 -411 -124 -598 -644
-1042 -1255 -1072 -314 -15 -633 86 -881 278 -233 180 -414 457 -486 745 -25
100 -28 125 -28 304 0 168 3 210 23 300 60 270 180 480 388 680 210 202 446
318 729 359 112 16 306 12 427 -9z m894 -2629 c9 -16 23 -27 30 -24 7 2 17 -5
23 -16 10 -17 6 -24 -21 -46 -18 -14 -37 -25 -43 -23 -5 2 -25 20 -44 41 l-34
38 28 29 c16 17 32 30 36 30 4 0 16 -13 25 -29z m-2212 -7 c3 -8 11 -12 17 -9
6 4 21 -3 35 -16 l24 -23 -57 -23 c-66 -27 -76 -28 -92 -9 -10 12 -8 17 9 26
17 9 20 17 15 41 -6 26 -4 29 18 29 14 0 28 -7 31 -16z m2124 -56 c15 -15 16
-64 2 -73 -6 -4 -8 -14 -5 -23 3 -11 -3 -22 -15 -29 -17 -11 -23 -7 -55 32
-40 48 -39 57 9 86 36 22 48 23 64 7z m-1964 -40 c21 -30 20 -50 -5 -83 -18
-22 -27 -26 -52 -21 -37 7 -67 33 -67 56 0 10 9 29 21 44 27 34 81 36 103 4z
m1862 -74 c31 -37 35 -47 23 -55 -8 -5 -20 -9 -26 -9 -7 0 -22 -9 -33 -20 -11
-11 -24 -20 -28 -20 -5 0 -16 26 -26 57 l-18 56 23 18 c35 27 44 24 85 -27z
m-1758 4 c23 -13 42 -28 42 -35 0 -6 -12 -25 -26 -42 -43 -51 -104 -39 -104
21 0 33 19 78 34 78 6 0 30 -10 54 -22z m1622 -43 c0 -8 -9 -19 -20 -25 -11
-6 -20 -17 -20 -25 0 -17 12 -19 26 -5 7 7 16 5 29 -4 19 -14 19 -15 1 -35
-35 -39 -109 -20 -116 29 -7 52 16 80 66 80 23 0 34 -5 34 -15z m-1478 -22
c24 -21 23 -48 -3 -66 -13 -9 -16 -17 -10 -22 6 -3 11 -10 11 -16 0 -15 -52
-10 -86 9 l-32 17 21 53 c19 52 22 54 51 48 16 -4 38 -14 48 -23z m1331 -31
c10 -10 14 -21 11 -25 -3 -3 4 -10 15 -17 12 -6 21 -16 21 -22 0 -16 -41 -58
-56 -58 -13 0 -27 27 -19 40 3 4 -2 13 -10 20 -18 15 -19 34 -5 61 13 24 22
24 43 1z m-1188 -59 c-5 -26 -2 -38 9 -46 10 -8 13 -20 10 -34 -5 -19 -9 -20
-37 -11 -47 16 -50 21 -38 80 11 51 13 55 37 50 23 -4 25 -8 19 -39z m1095 11
c6 -14 17 -32 25 -40 23 -23 18 -43 -12 -55 -55 -21 -63 -17 -84 36 -24 63
-24 59 9 72 42 17 52 15 62 -13z m-982 -12 c9 -7 8 -20 -6 -62 -19 -56 -28
-65 -50 -51 -11 7 -12 19 -2 65 11 56 26 68 58 48z m130 -26 c7 -7 -19 -57
-27 -52 -10 7 -21 -17 -21 -45 0 -20 -24 -25 -47 -11 -9 6 -10 17 -4 40 6 20
6 32 0 32 -5 0 -9 12 -9 26 0 26 1 26 52 20 29 -4 54 -9 56 -10z m691 2 c0 -7
-8 -35 -18 -63 -13 -37 -23 -51 -39 -53 -18 -3 -22 2 -22 23 0 18 -7 28 -25
35 -23 9 -24 12 -13 30 8 12 20 19 30 17 9 -3 19 1 22 9 7 18 66 19 65 2z
m-601 -16 c7 -5 10 -22 8 -40 -2 -17 1 -33 7 -35 5 -1 7 -13 3 -25 -7 -22 -37
-28 -81 -16 -17 4 -20 12 -17 52 2 26 5 53 7 60 5 13 53 16 73 4z m437 -5 c14
-11 17 -22 12 -45 -4 -20 -2 -32 6 -35 18 -7 -6 -29 -36 -32 -14 -2 -34 -6
-45 -9 -17 -6 -21 -1 -26 31 -4 21 -9 50 -12 65 -5 23 -2 27 23 31 52 8 59 7
78 -6z m-284 -16 c22 -17 22 -20 7 -43 -15 -22 -15 -25 0 -35 15 -9 12 -12
-16 -27 -17 -9 -32 -13 -32 -8 0 5 -13 7 -30 4 l-30 -4 0 66 0 66 39 0 c23 0
48 -8 62 -19z m142 -5 c3 -7 8 -34 12 -59 l7 -45 -62 0 c-58 0 -61 1 -57 22 3
11 9 38 12 59 7 35 9 37 45 37 23 0 40 -5 43 -14z"/>
<path d="M3040 4509 c0 -2 -7 -80 -14 -174 -8 -93 -12 -172 -9 -175 2 -3 65
-12 138 -20 l133 -16 6 36 c3 19 8 50 12 68 l7 32 -77 0 c-69 0 -76 2 -76 20
0 17 7 20 49 20 51 0 61 9 61 51 0 15 -7 19 -39 19 -51 0 -71 8 -71 29 0 15 8
17 60 13 l60 -4 0 46 0 46 -104 0 c-57 0 -111 3 -120 6 -9 3 -16 5 -16 3z"/>
<path d="M2850 4495 c-8 -2 -32 -6 -52 -10 -37 -6 -38 -7 -39 -48 0 -23 -4
-62 -8 -87 l-7 -45 -22 71 c-12 39 -22 76 -22 82 0 6 -3 13 -7 15 -9 5 -141
-18 -149 -26 -4 -4 130 -313 141 -325 2 -2 146 19 152 22 3 2 63 331 63 345 0
10 -17 12 -50 6z"/>
<path d="M3435 4281 c-30 -91 -55 -169 -55 -173 0 -5 101 -48 114 -48 2 0 10
15 16 33 l13 32 16 -52 c16 -53 16 -53 56 -52 22 0 59 4 82 7 l43 7 -35 44
c-19 24 -35 47 -35 52 0 4 14 10 30 14 17 4 46 21 65 40 53 49 46 110 -20 168
-26 23 -67 41 -159 71 l-75 24 -56 -167z m220 3 c25 -25 15 -49 -23 -52 -35
-4 -42 11 -22 49 13 23 24 24 45 3z"/>
<path d="M2140 4329 c-52 -28 -114 -62 -138 -76 l-43 -24 42 -50 c41 -49 42
-49 66 -33 14 9 28 12 32 7 5 -4 25 -52 47 -105 21 -54 43 -98 47 -98 4 0 35
14 68 31 43 21 59 34 55 45 -3 8 -28 53 -56 100 -28 47 -48 89 -45 94 3 5 19
11 35 15 17 4 30 11 30 16 0 17 -35 129 -40 129 -3 0 -48 -23 -100 -51z"/>
<path d="M3945 4181 c-38 -16 -57 -49 -64 -108 l-6 -58 -34 2 c-31 1 -34 -2
-57 -53 -13 -30 -24 -56 -24 -58 0 -8 79 -37 120 -44 66 -11 110 -1 133 30
l20 27 -21 59 c-12 32 -22 63 -22 67 0 4 20 5 44 2 43 -6 44 -6 49 26 3 18 9
46 12 63 6 29 4 32 -26 43 -37 13 -95 14 -124 2z"/>
<path d="M1795 4128 c-27 -22 -50 -44 -50 -48 0 -5 51 -69 114 -143 l114 -135
43 31 c24 18 43 35 44 38 0 11 -195 292 -205 295 -6 1 -32 -16 -60 -38z"/>
<path d="M4130 3875 l-123 -123 93 -101 93 -100 54 42 54 42 -28 25 c-15 14
-41 35 -56 47 -24 19 -27 25 -17 43 11 21 12 20 52 -16 l41 -37 23 28 23 29
-40 34 c-37 32 -39 36 -25 51 15 14 20 12 57 -26 l42 -41 29 34 30 34 -53 48
c-30 26 -70 61 -89 79 l-36 32 -124 -124z"/>
<path d="M1509 3848 c-19 -24 -38 -48 -42 -55 -5 -8 42 -49 133 -118 l141
-106 67 72 c78 84 95 106 88 117 -2 4 -25 22 -50 40 l-45 32 -28 -50 c-15 -27
-30 -50 -33 -50 -3 0 -47 36 -97 80 -50 44 -93 80 -95 80 -2 0 -20 -19 -39
-42z"/>
<path d="M2826 3859 c-292 -34 -555 -160 -760 -365 -481 -480 -495 -1259 -32
-1750 240 -256 525 -387 866 -401 234 -9 399 23 596 116 143 68 244 140 355
250 244 244 369 546 369 891 0 152 -19 268 -66 410 -61 183 -148 324 -293 473
-269 277 -660 420 -1035 376z m345 -64 c577 -100 999 -605 999 -1195 0 -671
-539 -1210 -1210 -1210 -330 0 -628 124 -860 359 -180 182 -293 397 -335 640
-22 125 -19 331 6 454 27 133 86 284 154 392 66 105 84 127 183 228 167 170
423 302 652 336 93 14 321 12 411 -4z"/>
<path d="M2855 3719 c-482 -37 -897 -408 -997 -889 -29 -138 -21 -385 16 -519
104 -371 384 -664 747 -779 248 -79 534 -65 781 38 176 73 371 235 487 404
221 323 251 760 76 1122 -161 333 -522 591 -867 619 -126 11 -155 11 -243 4z
m243 -247 c64 -20 151 -73 194 -119 72 -75 128 -217 128 -322 0 -23 3 -41 7
-41 6 0 225 59 316 85 l47 14 0 -220 c0 -218 0 -219 -22 -219 -12 0 -41 -11
-65 -25 -118 -70 -112 -255 10 -314 24 -12 51 -21 60 -21 15 0 17 -13 17 -108
l0 -109 -377 -67 c-208 -38 -390 -70 -405 -73 l-28 -5 0 469 0 470 143 38 c78
21 157 42 175 47 l32 9 0 74 c0 343 -417 503 -649 250 -64 -71 -94 -146 -95
-243 -1 -46 3 -75 11 -80 6 -4 86 -27 177 -52 l166 -45 0 -467 c0 -258 -3
-468 -7 -468 -5 0 -187 32 -405 72 l-398 72 0 107 0 107 35 6 c43 8 103 59
121 103 18 41 18 105 0 146 -18 44 -78 95 -121 103 l-35 6 0 218 0 217 177
-49 c98 -26 181 -48 185 -48 5 0 8 27 8 60 0 145 89 297 223 379 99 60 259 79
375 43z m-908 -854 c83 -42 113 -143 70 -229 -55 -107 -209 -116 -281 -16 -38
53 -41 136 -6 188 26 39 97 79 142 79 17 0 51 -10 75 -22z m1686 3 c58 -26 87
-72 91 -140 7 -103 -60 -176 -162 -175 -63 0 -108 24 -141 74 -23 34 -26 48
-22 98 3 40 11 69 28 91 26 37 90 71 135 71 17 0 48 -9 71 -19z"/>
<path d="M2110 1090 c-6 -11 -8 -20 -6 -20 3 0 10 9 16 20 6 11 8 20 6 20 -3
0 -10 -9 -16 -20z"/>
</g>
</svg>
